<svg width="31" height="24" viewBox="0 0 31 24" fill="none" xmlns="http://www.w3.org/2000/svg">
<path d="M31 2.84287C30.1367 4.06666 29.0777 5.10988 27.8227 5.97254C27.8351 6.2039 27.8413 6.46539 27.8413 6.75703C27.8413 8.37739 27.5935 9.99972 27.0977 11.624C26.602 13.2483 25.8447 14.803 24.8259 16.2882C23.8072 17.7734 22.5936 19.0892 21.1853 20.2355C19.777 21.3818 18.0842 22.2958 16.1068 22.9775C14.1294 23.6592 12.0101 24 9.74903 24C6.22023 24 2.97055 23.0921 0 21.2762C0.527238 21.3321 1.0329 21.3601 1.517 21.3601C4.46502 21.3601 7.09808 20.4946 9.41617 18.7638C8.04164 18.7398 6.81064 18.3365 5.72317 17.554C4.63571 16.7715 3.88734 15.7716 3.47807 14.5543C3.88261 14.6277 4.28187 14.6644 4.67587 14.6644C5.24299 14.6644 5.80104 14.5939 6.35 14.453C4.88311 14.173 3.66621 13.4766 2.69928 12.364C1.73238 11.2514 1.24894 9.96719 1.24894 8.51145V8.43642C2.14932 8.91156 3.10972 9.16429 4.13013 9.19463C3.26116 8.6425 2.57219 7.92251 2.06324 7.03466C1.55425 6.1468 1.29975 5.18599 1.29975 4.15221C1.29975 3.06192 1.58641 2.04666 2.15973 1.10642C3.75495 2.97213 5.68788 4.46327 7.95853 5.57983C10.2292 6.6964 12.6652 7.31651 15.2666 7.44016C15.1556 6.99947 15.1 6.53959 15.0998 6.06052C15.0998 4.38779 15.7209 2.95952 16.9631 1.77571C18.2053 0.591903 19.704 0 21.4591 0C23.2966 0 24.8444 0.637687 26.1024 1.91306C27.5397 1.64172 28.8856 1.15093 30.1399 0.440688C29.6566 1.89013 28.7255 3.00827 27.3464 3.79512C28.6139 3.65156 29.8318 3.33415 30.9999 2.84287H31Z" fill="#FFF9F0"/>
</svg>
