<svg width="26" height="24" viewBox="0 0 26 24" fill="none" xmlns="http://www.w3.org/2000/svg">
<path d="M5.9022 24V7.80724H0.328827V24H5.9022ZM3.11624 5.59507C5.05977 5.59507 6.26953 4.35165 6.26953 2.7978C6.23332 1.2089 5.05985 0 3.15312 0C1.24669 0 0 1.20893 0 2.7978C0 4.35172 1.20946 5.59507 3.07985 5.59507H3.11606H3.11624ZM8.98705 24H14.5604V14.9572C14.5604 14.4732 14.5966 13.9898 14.7438 13.6438C15.1467 12.6769 16.0638 11.6754 17.6034 11.6754C19.6201 11.6754 20.427 13.1603 20.427 15.3371V23.9999H26V14.7151C26 9.74133 23.2504 7.42708 19.5834 7.42708C16.5768 7.42708 15.2567 9.05001 14.5233 10.1554H14.5606V7.8069H8.98718C9.06032 9.32634 8.98718 23.9997 8.98718 23.9997L8.98705 24Z" fill="#FFF9F0"/>
</svg>
